<svg xmlns="http://www.w3.org/2000/svg" xmlns:xlink="http://www.w3.org/1999/xlink" width="200" zoomAndPan="magnify" viewBox="0 0 150 37.5" height="50" preserveAspectRatio="xMidYMid meet" version="1.0"><defs><g/><clipPath id="e35cb03c8e"><path d="M 0.988281 0 L 149.011719 0 L 149.011719 37.007812 L 0.988281 37.007812 Z M 0.988281 0 " clip-rule="nonzero"/></clipPath><clipPath id="5214796007"><path d="M 0.988281 3 L 36.824219 3 L 36.824219 36.152344 L 0.988281 36.152344 Z M 0.988281 3 " clip-rule="nonzero"/></clipPath><clipPath id="166ce99b70"><path d="M 25 0.316406 L 29 0.316406 L 29 8 L 25 8 Z M 25 0.316406 " clip-rule="nonzero"/></clipPath><clipPath id="dfabd86ba2"><path d="M 9 0.316406 L 13 0.316406 L 13 8 L 9 8 Z M 9 0.316406 " clip-rule="nonzero"/></clipPath></defs><g clip-path="url(#e35cb03c8e)"><path fill="#ffffff" d="M 0.988281 0 L 149.011719 0 L 149.011719 37.007812 L 0.988281 37.007812 Z M 0.988281 0 " fill-opacity="1" fill-rule="nonzero"/><path fill="#ffffff" d="M 0.988281 0 L 149.011719 0 L 149.011719 37.007812 L 0.988281 37.007812 Z M 0.988281 0 " fill-opacity="1" fill-rule="nonzero"/></g><g clip-path="url(#5214796007)"><path fill="#646fcb" d="M 3.726562 12.886719 L 34.246094 12.886719 L 34.246094 31.863281 C 34.246094 32.8125 33.476562 33.582031 32.527344 33.582031 L 5.445312 33.582031 C 4.496094 33.582031 3.726562 32.8125 3.726562 31.863281 Z M 4.429688 3.132812 C 2.527344 3.132812 0.988281 4.671875 0.988281 6.574219 L 0.988281 32.867188 C 0.988281 34.765625 2.527344 36.308594 4.429688 36.308594 L 33.542969 36.308594 C 35.445312 36.308594 36.984375 34.765625 36.984375 32.867188 L 36.984375 6.574219 C 36.984375 4.671875 35.445312 3.132812 33.542969 3.132812 L 30.226562 3.132812 L 30.226562 5.910156 C 30.214844 7.523438 28.894531 8.824219 27.28125 8.808594 C 25.679688 8.792969 24.390625 7.503906 24.378906 5.910156 L 24.378906 3.132812 L 13.59375 3.132812 L 13.59375 5.910156 C 13.59375 7.523438 12.285156 8.832031 10.671875 8.832031 C 9.054688 8.832031 7.746094 7.523438 7.742188 5.910156 L 7.742188 3.132812 L 4.429688 3.132812 " fill-opacity="1" fill-rule="nonzero"/></g><g clip-path="url(#166ce99b70)"><path fill="#646fcb" d="M 28.648438 5.871094 L 28.648438 1.699219 C 28.648438 0.953125 28.042969 0.355469 27.296875 0.355469 C 26.558594 0.355469 25.960938 0.957031 25.957031 1.699219 L 25.957031 5.871094 C 25.960938 6.613281 26.5625 7.214844 27.304688 7.210938 C 28.046875 7.207031 28.648438 6.613281 28.648438 5.871094 " fill-opacity="1" fill-rule="nonzero"/></g><g clip-path="url(#dfabd86ba2)"><path fill="#646fcb" d="M 12.015625 1.699219 C 12.011719 0.953125 11.410156 0.355469 10.667969 0.355469 C 9.925781 0.355469 9.324219 0.957031 9.324219 1.699219 L 9.324219 5.871094 C 9.324219 6.613281 9.929688 7.214844 10.671875 7.210938 C 11.414062 7.207031 12.011719 6.613281 12.015625 5.871094 L 12.015625 1.699219 " fill-opacity="1" fill-rule="nonzero"/></g><g fill="#000000" fill-opacity="1"><g transform="translate(45.266973, 27.462413)"><g><path d="M 18.582031 -0.96875 L 14.308594 -7.183594 C 16.1875 -7.820312 18.523438 -10.035156 18.523438 -13.21875 C 18.523438 -15.15625 17.886719 -16.886719 16.765625 -17.976562 C 15.492188 -19.25 14.035156 -19.917969 10.730469 -19.917969 L 3.09375 -19.917969 C 2.394531 -19.917969 2.242188 -19.582031 2.242188 -19.039062 L 2.242188 -0.878906 C 2.242188 -0.183594 2.546875 0 3.09375 0 L 6.09375 0 C 6.640625 0 6.972656 -0.183594 6.972656 -0.878906 L 6.972656 -15.671875 L 11.003906 -15.671875 C 12.582031 -15.671875 13.792969 -14.671875 13.792969 -13.097656 C 13.792969 -11.671875 12.398438 -10.640625 10.914062 -10.640625 L 10.308594 -10.640625 C 9.609375 -10.640625 9.429688 -10.308594 9.429688 -9.761719 L 9.429688 -7.335938 C 9.429688 -6.488281 9.488281 -6.152344 9.761719 -5.789062 L 13.035156 -0.910156 C 13.460938 -0.273438 13.824219 0 14.550781 0 L 18.128906 0 C 18.703125 0 18.855469 -0.546875 18.582031 -0.96875 Z M 18.582031 -0.96875 "/></g></g></g><g fill="#000000" fill-opacity="1"><g transform="translate(65.453905, 27.462413)"><g><path d="M 16.703125 -4.242188 L 7.03125 -4.242188 L 7.03125 -8.246094 L 15.15625 -8.246094 C 15.855469 -8.246094 16.035156 -8.578125 16.035156 -9.125 L 16.035156 -11.488281 C 16.035156 -12.035156 15.855469 -12.367188 15.15625 -12.367188 L 7.03125 -12.367188 L 7.03125 -15.671875 L 16.1875 -15.671875 C 16.886719 -15.671875 17.066406 -16.007812 17.066406 -16.550781 L 17.066406 -19.066406 C 17.066406 -19.613281 16.886719 -19.945312 16.1875 -19.945312 L 3.121094 -19.945312 C 2.425781 -19.945312 2.242188 -19.613281 2.242188 -19.066406 L 2.242188 -0.878906 C 2.242188 -0.332031 2.425781 0 3.121094 0 L 16.703125 0 C 17.402344 0 17.582031 -0.332031 17.582031 -0.878906 L 17.582031 -3.363281 C 17.582031 -3.910156 17.402344 -4.242188 16.703125 -4.242188 Z M 16.703125 -4.242188 "/></g></g></g><g fill="#000000" fill-opacity="1"><g transform="translate(84.458717, 27.462413)"><g><path d="M 17.917969 -6.394531 L 17.917969 -13.550781 C 17.917969 -18.339844 13.367188 -20.402344 9.761719 -20.402344 C 6.152344 -20.402344 1.667969 -18.339844 1.667969 -13.550781 L 1.667969 -6.394531 C 1.667969 -1.605469 6.152344 0.453125 9.761719 0.453125 C 13.367188 0.453125 17.917969 -1.605469 17.917969 -6.394531 Z M 13.15625 -13.125 L 13.15625 -6.820312 C 13.15625 -4.878906 11.761719 -3.757812 9.761719 -3.757812 C 7.789062 -3.757812 6.394531 -4.878906 6.394531 -6.820312 L 6.394531 -13.125 C 6.394531 -15.066406 7.789062 -16.1875 9.761719 -16.1875 C 11.761719 -16.1875 13.15625 -15.066406 13.15625 -13.125 Z M 13.15625 -13.125 "/></g></g></g><g fill="#000000" fill-opacity="1"><g transform="translate(104.009127, 27.462413)"><g><path d="M 18.582031 -0.96875 L 14.308594 -7.183594 C 16.1875 -7.820312 18.523438 -10.035156 18.523438 -13.21875 C 18.523438 -15.15625 17.886719 -16.886719 16.765625 -17.976562 C 15.492188 -19.25 14.035156 -19.917969 10.730469 -19.917969 L 3.09375 -19.917969 C 2.394531 -19.917969 2.242188 -19.582031 2.242188 -19.039062 L 2.242188 -0.878906 C 2.242188 -0.183594 2.546875 0 3.09375 0 L 6.09375 0 C 6.640625 0 6.972656 -0.183594 6.972656 -0.878906 L 6.972656 -15.671875 L 11.003906 -15.671875 C 12.582031 -15.671875 13.792969 -14.671875 13.792969 -13.097656 C 13.792969 -11.671875 12.398438 -10.640625 10.914062 -10.640625 L 10.308594 -10.640625 C 9.609375 -10.640625 9.429688 -10.308594 9.429688 -9.761719 L 9.429688 -7.335938 C 9.429688 -6.488281 9.488281 -6.152344 9.761719 -5.789062 L 13.035156 -0.910156 C 13.460938 -0.273438 13.824219 0 14.550781 0 L 18.128906 0 C 18.703125 0 18.855469 -0.546875 18.582031 -0.96875 Z M 18.582031 -0.96875 "/></g></g></g><g fill="#000000" fill-opacity="1"><g transform="translate(124.19606, 27.462413)"><g><path d="M 17.066406 -11.125 L 10.429688 -11.125 C 9.730469 -11.125 9.550781 -10.792969 9.550781 -10.246094 L 9.550781 -7.882812 C 9.550781 -7.335938 9.730469 -7.003906 10.429688 -7.003906 L 13.15625 -7.003906 C 13.15625 -4.667969 11.761719 -3.757812 9.792969 -3.757812 C 7.789062 -3.757812 6.457031 -4.878906 6.457031 -6.820312 L 6.457031 -12.914062 C 6.457031 -14.855469 7.789062 -16.1875 9.792969 -16.1875 C 11.824219 -16.1875 12.914062 -15.277344 13.246094 -14.339844 C 13.398438 -13.914062 13.277344 -13.308594 14.125 -13.308594 L 17.066406 -13.308594 C 17.765625 -13.308594 17.945312 -13.429688 17.945312 -14.15625 C 17.945312 -18.21875 13.582031 -20.402344 9.792969 -20.402344 C 6.214844 -20.402344 1.636719 -18.371094 1.636719 -13.582031 L 1.636719 -6.125 C 1.636719 -1.363281 6.214844 0.453125 9.792969 0.453125 C 13.246094 0.453125 17.671875 -1.484375 17.945312 -5.851562 L 17.945312 -10.246094 C 17.945312 -10.792969 17.765625 -11.125 17.066406 -11.125 Z M 17.066406 -11.125 "/></g></g></g></svg>